<?xml version="1.0" encoding="UTF-8"?>
<!DOCTYPE svg PUBLIC "-//W3C//DTD SVG 1.1//EN" "http://www.w3.org/Graphics/SVG/1.1/DTD/svg11.dtd">
<!-- Creator: CorelDRAW -->
<svg xmlns="http://www.w3.org/2000/svg" xml:space="preserve" width="3096px" height="3096px" version="1.1" style="shape-rendering:geometricPrecision; text-rendering:geometricPrecision; image-rendering:optimizeQuality; fill-rule:evenodd; clip-rule:evenodd"
viewBox="0 0 498.05 498.05"
 xmlns:xlink="http://www.w3.org/1999/xlink"
 xmlns:xodm="http://www.corel.com/coreldraw/odm/2003">
 <defs>
  <style type="text/css">
   <![CDATA[
    .fil0 {fill:none}
    .fil2 {fill:#005BBB}
    .fil1 {fill:#FFD500}
   ]]>
  </style>
 </defs>
 <g id="Слой_x0020_1">
  <metadata id="CorelCorpID_0Corel-Layer"/>
  <rect class="fil0" width="498.05" height="498.05"/>
  <g id="_2411809700800">
   <path class="fil1" d="M248.5 185l0.14 0c0.16,0.01 0.31,0.01 0.46,0.02l0.09 0c0.18,0.01 0.35,0.02 0.53,0.04l0.13 0.01c0.15,0.01 0.29,0.02 0.43,0.04l0.13 0.01c0.17,0.02 0.35,0.04 0.52,0.06l0.1 0.01c0.15,0.02 0.29,0.04 0.43,0.06l0.15 0.02c0.17,0.03 0.34,0.06 0.51,0.09l0.05 0.01c0.16,0.03 0.31,0.06 0.46,0.09l0.15 0.03c0.15,0.03 0.29,0.06 0.43,0.09l0.09 0.02c0.16,0.04 0.32,0.08 0.49,0.12l0.15 0.04c0.12,0.03 0.24,0.06 0.37,0.1l0.14 0.04c0.16,0.04 0.32,0.09 0.47,0.14l0.15 0.04c0.11,0.04 0.23,0.08 0.35,0.12l0.16 0.05c0.15,0.05 0.29,0.1 0.43,0.16l0.14 0.05c0.12,0.04 0.24,0.09 0.36,0.13l0.17 0.07c0.12,0.05 0.23,0.09 0.34,0.14 0.05,0.02 0.09,0.04 0.14,0.06 0.14,0.06 0.28,0.12 0.42,0.18l0.19 0.09c0.09,0.04 0.18,0.08 0.28,0.13 0.06,0.03 0.12,0.05 0.18,0.08 0.13,0.07 0.27,0.13 0.4,0.2 0.06,0.03 0.12,0.06 0.18,0.09 0.09,0.05 0.17,0.1 0.26,0.14l0.19 0.11c0.11,0.06 0.21,0.11 0.32,0.17 0.08,0.05 0.16,0.1 0.25,0.15 0.08,0.05 0.16,0.09 0.24,0.14 0.07,0.04 0.14,0.09 0.21,0.13 0.07,0.04 0.14,0.09 0.21,0.13 0.11,0.07 0.22,0.14 0.33,0.21 0.07,0.05 0.15,0.1 0.22,0.15 0.07,0.05 0.14,0.09 0.21,0.14 0.07,0.05 0.13,0.09 0.2,0.14 0.07,0.05 0.14,0.09 0.21,0.14 0.11,0.08 0.22,0.16 0.33,0.24 0.07,0.06 0.14,0.11 0.21,0.17 0.06,0.04 0.11,0.08 0.16,0.12 0.08,0.06 0.15,0.12 0.23,0.18 0.04,0.03 0.09,0.07 0.13,0.1 0.14,0.11 0.27,0.22 0.41,0.34 0.04,0.03 0.08,0.07 0.13,0.11 0.07,0.06 0.15,0.13 0.22,0.19l0.12 0.11c0.15,0.13 0.3,0.26 0.44,0.4l0.07 0.06c0.08,0.08 0.16,0.16 0.24,0.23l0.09 0.09c0.25,0.24 0.49,0.49 0.73,0.75l0.07 0.08c0.25,0.26 0.49,0.53 0.72,0.81l0.06 0.06c0.07,0.09 0.15,0.18 0.22,0.27l0.04 0.05c0.15,0.19 0.3,0.38 0.45,0.58l0.01 0.01c0.07,0.1 0.15,0.2 0.22,0.3l0.03 0.04c0.22,0.3 0.44,0.61 0.65,0.93l0.02 0.04c0.21,0.31 0.41,0.63 0.6,0.96l0.03 0.05c0.06,0.1 0.13,0.21 0.19,0.32l0 0.01c0.17,0.29 0.33,0.59 0.48,0.89l42.06 80.82c1.7,3.25 2.66,6.95 2.66,10.87 0,13.02 -10.55,23.56 -23.56,23.56 -9.09,0 -16.98,-5.14 -20.91,-12.68l-4.69 -9.01c-0.79,-1.53 -0.56,-3.3 0.61,-4.57 2.11,-2.31 4.03,-5.1 5.68,-8.38 1.97,-3.78 2.4,-7.56 1.3,-11.34 -0.2,-0.69 -0.81,-1.16 -1.54,-1.16l-45.23 0c-0.72,0 -1.34,0.47 -1.54,1.16 -1.1,3.78 -0.66,7.56 1.3,11.34 1.65,3.28 3.58,6.07 5.69,8.38 1.16,1.27 1.39,3.04 0.6,4.57l-4.69 9.01c-3.93,7.54 -11.82,12.68 -20.9,12.68 -13.02,0 -23.56,-10.54 -23.56,-23.56 0,-3.92 0.96,-7.62 2.65,-10.87l42.06 -80.82c0.15,-0.3 0.31,-0.6 0.48,-0.89l0.01 -0.01c0.06,-0.11 0.12,-0.22 0.18,-0.32l0.03 -0.05c0.19,-0.33 0.39,-0.65 0.6,-0.96l0.03 -0.04c0.2,-0.32 0.42,-0.63 0.64,-0.93l0.03 -0.04c0.08,-0.1 0.15,-0.2 0.22,-0.3l0.01 -0.01c0.15,-0.2 0.3,-0.39 0.46,-0.58l0.03 -0.05c0.08,-0.09 0.15,-0.18 0.23,-0.27l0.05 -0.06c0.24,-0.28 0.47,-0.55 0.72,-0.81l0.07 -0.08c0.24,-0.26 0.48,-0.51 0.74,-0.75l0.08 -0.09c0.08,-0.07 0.16,-0.15 0.24,-0.23l0.07 -0.06c0.15,-0.14 0.29,-0.27 0.44,-0.4l0.12 -0.11c0.08,-0.06 0.15,-0.13 0.22,-0.19 0.05,-0.04 0.09,-0.08 0.14,-0.11 0.13,-0.12 0.26,-0.23 0.4,-0.34 0.04,-0.03 0.09,-0.07 0.14,-0.1 0.07,-0.06 0.14,-0.12 0.22,-0.18l0.16 -0.12c0.07,-0.06 0.14,-0.11 0.22,-0.17 0.11,-0.08 0.22,-0.16 0.33,-0.24 0.07,-0.05 0.13,-0.09 0.2,-0.14 0.07,-0.05 0.13,-0.09 0.2,-0.14 0.07,-0.05 0.14,-0.09 0.21,-0.14 0.08,-0.05 0.15,-0.1 0.22,-0.15 0.11,-0.07 0.22,-0.14 0.33,-0.21 0.07,-0.04 0.14,-0.09 0.21,-0.13 0.07,-0.04 0.14,-0.09 0.21,-0.13 0.08,-0.05 0.16,-0.09 0.25,-0.14 0.08,-0.05 0.16,-0.1 0.25,-0.15 0.1,-0.06 0.2,-0.11 0.31,-0.17 0.06,-0.04 0.13,-0.07 0.19,-0.11 0.09,-0.04 0.18,-0.09 0.26,-0.14 0.06,-0.03 0.12,-0.06 0.18,-0.09 0.14,-0.07 0.27,-0.13 0.41,-0.2 0.06,-0.03 0.12,-0.05 0.18,-0.08 0.09,-0.05 0.18,-0.09 0.28,-0.13 0.06,-0.03 0.12,-0.06 0.18,-0.09 0.14,-0.06 0.28,-0.12 0.43,-0.18 0.04,-0.02 0.08,-0.04 0.13,-0.06 0.11,-0.05 0.23,-0.09 0.34,-0.14l0.17 -0.07c0.12,-0.04 0.24,-0.09 0.36,-0.13l0.14 -0.05c0.14,-0.06 0.29,-0.11 0.43,-0.16l0.16 -0.05c0.12,-0.04 0.24,-0.08 0.36,-0.12l0.14 -0.04c0.16,-0.05 0.31,-0.1 0.47,-0.14l0.14 -0.04c0.13,-0.04 0.25,-0.07 0.37,-0.1l0.15 -0.04c0.17,-0.04 0.33,-0.08 0.5,-0.12l0.08 -0.02c0.14,-0.03 0.29,-0.06 0.43,-0.09l0.15 -0.03c0.15,-0.03 0.31,-0.06 0.46,-0.09l0.05 -0.01c0.17,-0.03 0.34,-0.06 0.52,-0.09l0.14 -0.02c0.14,-0.02 0.29,-0.04 0.43,-0.06l0.1 -0.01c0.17,-0.02 0.35,-0.04 0.52,-0.06l0.14 -0.01c0.14,-0.02 0.28,-0.03 0.42,-0.04l0.13 -0.01c0.18,-0.02 0.35,-0.03 0.53,-0.04l0.1 0c0.15,-0.01 0.3,-0.01 0.45,-0.02l0.14 0c0.18,-0.01 0.37,-0.01 0.55,-0.01 0.18,0 0.36,0 0.54,0.01zm12.07 59.33l-8.7 -16.64c-2.56,-4.96 -5.37,-4.59 -7.82,0l-8.71 16.64c-0.27,0.52 -0.25,1.09 0.05,1.58 0.3,0.5 0.8,0.78 1.38,0.78l22.37 0c0.58,0 1.08,-0.28 1.38,-0.78 0.3,-0.49 0.32,-1.06 0.05,-1.58z"/>
   <path class="fil1" d="M110.17 249.02l42.63 81.92c6.26,12.01 18.82,20.21 33.3,20.21 17.82,0 32.74,-12.41 36.58,-29.06 0.14,-0.61 -0.07,-1.22 -0.56,-1.61 -0.49,-0.4 -1.13,-0.47 -1.7,-0.2 -4.48,2.13 -9.46,3.3 -14.62,3.3 -18.79,0 -34.02,-15.23 -34.02,-34.02 0,-5.47 1.31,-10.84 3.84,-15.7l12.92 -24.84 -78.37 0z"/>
   <path class="fil1" d="M387.88 249.02l-42.63 81.92c-6.26,12.01 -18.82,20.21 -33.3,20.21 -17.43,0 -32.09,-11.88 -36.32,-27.98 -0.15,-0.6 0.03,-1.19 0.49,-1.61 0.46,-0.41 1.08,-0.52 1.65,-0.29 3.87,1.5 8.05,2.31 12.35,2.31 18.78,0 34.01,-15.23 34.01,-34.02 0,-5.47 -1.31,-10.84 -3.84,-15.7l-12.92 -24.84 80.51 0z"/>
   <path class="fil2" d="M379.13 146.97c20.73,0 37.54,16.8 37.54,37.54 0,6.25 -1.53,12.15 -4.23,17.33l-24.56 47.18 -80.51 0 -0.14 -0.27c-1.25,-2.4 -1.25,-5.02 0,-7.42l38.59 -74.16c6.26,-12 18.83,-20.2 33.31,-20.2z"/>
   <path class="fil2" d="M118.92 146.97c-20.73,0 -37.54,16.8 -37.54,37.54 0,6.25 1.53,12.15 4.23,17.33l24.56 47.18 78.37 0 1.21 -2.32c1.25,-2.4 1.25,-5.02 0,-7.42l-37.52 -72.11c-6.26,-12 -18.83,-20.2 -33.31,-20.2z"/>
   <path class="fil2" d="M284.17 198.97l1.27 -2.43c4.03,-7.73 4.03,-15.46 0,-23.2 -17.77,-35.25 -55.06,-35.25 -72.83,0 -4.03,7.74 -4.03,15.47 0,23.2l0.19 0.38c0.29,0.55 0.82,0.87 1.43,0.87 0.62,0 1.14,-0.32 1.43,-0.87l2.01 -3.87c0.22,-0.41 0.44,-0.82 0.66,-1.23l0.08 -0.12 0.01 -0.03c0.05,-0.08 0.1,-0.17 0.15,-0.26l0.03 -0.05c0.29,-0.49 0.59,-0.98 0.91,-1.46l0.02 -0.04c0.3,-0.44 0.6,-0.88 0.91,-1.31l0.06 -0.08 0.06 -0.08c0.09,-0.12 0.18,-0.24 0.27,-0.36l0.01 -0.01c0.21,-0.28 0.43,-0.56 0.65,-0.84l0.06 -0.07c0.11,-0.14 0.24,-0.29 0.36,-0.43l0.05 -0.07c0.35,-0.41 0.7,-0.81 1.06,-1.2l0.07 -0.07c0.34,-0.36 0.68,-0.71 1.03,-1.06l0.15 -0.14 0.05 -0.05c0.11,-0.1 0.21,-0.2 0.31,-0.3l0.07 -0.06c0.2,-0.19 0.41,-0.38 0.62,-0.57l0.17 -0.15 0.05 -0.04c0.1,-0.09 0.2,-0.18 0.31,-0.27 0.06,-0.06 0.13,-0.11 0.19,-0.16 0.17,-0.15 0.37,-0.31 0.56,-0.47 0.06,-0.04 0.12,-0.09 0.18,-0.14 0.14,-0.11 0.28,-0.22 0.42,-0.33l0.13 -0.1c0.12,-0.09 0.25,-0.18 0.37,-0.27 0.16,-0.12 0.32,-0.24 0.49,-0.36 0.09,-0.07 0.18,-0.13 0.28,-0.2 0.09,-0.07 0.19,-0.13 0.29,-0.2 0.09,-0.07 0.19,-0.13 0.29,-0.2 0.11,-0.07 0.22,-0.15 0.34,-0.22 0.16,-0.11 0.32,-0.21 0.49,-0.31 0.08,-0.06 0.17,-0.12 0.26,-0.17 0.11,-0.07 0.22,-0.13 0.33,-0.2 0.11,-0.07 0.22,-0.13 0.33,-0.2 0.13,-0.07 0.26,-0.15 0.39,-0.22 0.15,-0.08 0.3,-0.17 0.45,-0.25 0.1,-0.06 0.21,-0.11 0.31,-0.17 0.1,-0.05 0.19,-0.1 0.29,-0.15 0.06,-0.03 0.12,-0.06 0.18,-0.09l0.08 -0.05 0.08 -0.04c0.19,-0.09 0.38,-0.19 0.57,-0.28 0.07,-0.03 0.15,-0.07 0.22,-0.11 0.15,-0.07 0.3,-0.14 0.45,-0.2 0.08,-0.04 0.15,-0.07 0.23,-0.11 0.2,-0.09 0.41,-0.18 0.62,-0.27 0.08,-0.03 0.16,-0.07 0.24,-0.1 0.15,-0.06 0.3,-0.12 0.45,-0.18l0.23 -0.09 0.07 -0.03c0.15,-0.06 0.3,-0.12 0.45,-0.17l0.09 -0.04c0.25,-0.09 0.5,-0.18 0.75,-0.26l0.23 -0.08 0.06 -0.02c0.15,-0.05 0.31,-0.1 0.46,-0.15l0.2 -0.06 0.05 -0.02c0.22,-0.06 0.45,-0.13 0.68,-0.2l0.14 -0.04c0.17,-0.04 0.35,-0.09 0.52,-0.14l0.06 -0.01 0.21 -0.06c0.22,-0.05 0.43,-0.1 0.64,-0.16l0.09 -0.02 0.17 -0.03c0.19,-0.04 0.38,-0.09 0.56,-0.12l0.15 -0.04c0.21,-0.04 0.41,-0.08 0.62,-0.11l0.12 -0.03 0.06 -0.01c0.25,-0.04 0.5,-0.08 0.75,-0.12l0.14 -0.02c0.22,-0.04 0.45,-0.07 0.67,-0.1l0.1 -0.01c0.3,-0.04 0.6,-0.07 0.89,-0.1l0.1 -0.01c0.2,-0.02 0.39,-0.04 0.59,-0.05l0.14 -0.02c0.27,-0.02 0.55,-0.03 0.83,-0.05l0.13 0c0.22,-0.02 0.44,-0.02 0.66,-0.03l0.15 0c0.28,-0.01 0.56,-0.02 0.84,-0.02 0.28,0 0.56,0.01 0.84,0.02l0.14 0c0.21,0.01 0.42,0.01 0.63,0.02l0.1 0.01 0.06 0c0.28,0.02 0.56,0.03 0.83,0.05l0.14 0.02c0.2,0.01 0.39,0.03 0.59,0.05l0.1 0.01c0.29,0.02 0.58,0.06 0.88,0.1l0.1 0.01c0.23,0.03 0.45,0.06 0.68,0.1l0.14 0.02c0.28,0.04 0.56,0.09 0.83,0.14l0.06 0.01c0.22,0.04 0.44,0.08 0.67,0.13l0.14 0.03c0.19,0.04 0.38,0.08 0.57,0.12l0.17 0.04 0.08 0.01c0.21,0.06 0.43,0.11 0.64,0.16l0.22 0.06 0.07 0.02c0.16,0.04 0.33,0.09 0.5,0.13l0.15 0.04c0.22,0.07 0.45,0.13 0.67,0.2l0.29 0.09 0.05 0.02c0.16,0.05 0.32,0.1 0.48,0.16l0.16 0.05c0.25,0.09 0.51,0.17 0.76,0.27l0.09 0.03c0.19,0.08 0.39,0.15 0.59,0.23l0.17 0.07c0.16,0.06 0.32,0.13 0.48,0.19 0.07,0.03 0.15,0.06 0.23,0.1 0.21,0.09 0.42,0.18 0.63,0.28l0.19 0.08c0.15,0.07 0.3,0.14 0.45,0.21 0.07,0.03 0.14,0.07 0.22,0.1 0.21,0.11 0.42,0.21 0.63,0.32 0.1,0.05 0.19,0.1 0.29,0.15 0.13,0.06 0.26,0.13 0.38,0.2l0.2 0.11c0.16,0.08 0.32,0.17 0.47,0.26 0.14,0.08 0.28,0.16 0.42,0.24 0.1,0.06 0.19,0.11 0.29,0.17 0.11,0.07 0.22,0.14 0.33,0.2 0.1,0.06 0.19,0.12 0.28,0.18 0.17,0.1 0.34,0.21 0.5,0.32 0.12,0.08 0.23,0.15 0.35,0.23 0.1,0.07 0.2,0.14 0.3,0.2 0.09,0.06 0.17,0.12 0.26,0.18 0.1,0.07 0.2,0.14 0.3,0.21 0.16,0.12 0.32,0.24 0.48,0.36 0.12,0.08 0.23,0.17 0.35,0.26 0.06,0.04 0.12,0.09 0.18,0.14 0.13,0.1 0.25,0.19 0.37,0.29 0.06,0.04 0.11,0.09 0.17,0.13 0.19,0.16 0.38,0.31 0.56,0.47 0.06,0.05 0.12,0.1 0.18,0.15 0.12,0.1 0.24,0.2 0.36,0.31l0.19 0.17c0.2,0.18 0.39,0.35 0.58,0.53l0.11 0.1 0.04 0.04c0.09,0.09 0.18,0.17 0.27,0.26l0.06 0.05 0.14 0.14c0.35,0.35 0.7,0.71 1.04,1.07l0.07 0.08c0.36,0.39 0.72,0.79 1.06,1.19l0.06 0.07c0.11,0.13 0.22,0.26 0.32,0.4l0.08 0.09c0.22,0.28 0.44,0.56 0.66,0.84l0 0.01c0.11,0.14 0.22,0.29 0.33,0.43l0.04 0.06c0.33,0.45 0.64,0.9 0.95,1.37l0.02 0.04c0.29,0.44 0.57,0.89 0.84,1.34l0.08 0.14c0.07,0.11 0.13,0.23 0.2,0.34l0.02 0.03 0.03 0.07c0.23,0.4 0.44,0.79 0.65,1.2l3.08 5.92c0.29,0.55 0.81,0.87 1.43,0.87 0.61,0 1.14,-0.32 1.42,-0.87z"/>
  </g>
 </g>
</svg>
