<?xml version="1.0" encoding="UTF-8"?>
<!DOCTYPE svg PUBLIC "-//W3C//DTD SVG 1.1//EN" "http://www.w3.org/Graphics/SVG/1.1/DTD/svg11.dtd">
<!-- Creator: CorelDRAW -->
<svg xmlns="http://www.w3.org/2000/svg" xml:space="preserve" width="2094px" height="1280px" version="1.1" style="shape-rendering:geometricPrecision; text-rendering:geometricPrecision; image-rendering:optimizeQuality; fill-rule:evenodd; clip-rule:evenodd"
viewBox="0 0 203.69 124.46"
 xmlns:xlink="http://www.w3.org/1999/xlink"
 xmlns:xodm="http://www.corel.com/coreldraw/odm/2003">
 <defs>
  <style type="text/css">
   <![CDATA[
    .str0 {stroke:white;stroke-width:0.97;stroke-miterlimit:22.9256}
    .fil0 {fill:none}
    .fil2 {fill:#005BBB}
    .fil1 {fill:#FFD500}
   ]]>
  </style>
 </defs>
 <g id="Слой_x0020_1">
  <metadata id="CorelCorpID_0Corel-Layer"/>
  <g id="_2499174345424">
   <g>
    <path class="fil0 str0" d="M180.5 0.53c12.54,0 22.7,10.16 22.7,22.69 0,3.78 -0.92,7.35 -2.56,10.48l-40.62 78.06c-3.78,7.26 -11.38,12.21 -20.13,12.21 -12.54,0 -22.7,-10.16 -22.7,-22.69 0,-3.79 0.92,-7.35 2.56,-10.49l40.62 -78.05c3.78,-7.26 11.38,-12.21 20.13,-12.21z"/>
    <path class="fil0 str0" d="M23.18 0.53c-12.53,0 -22.69,10.16 -22.69,22.69 0,3.78 0.92,7.35 2.56,10.48l40.62 78.06c3.78,7.26 11.38,12.21 20.13,12.21 12.54,0 22.7,-10.16 22.7,-22.69 0,-3.79 -0.92,-7.35 -2.56,-10.49l-40.62 -78.05c-3.78,-7.26 -11.38,-12.21 -20.14,-12.21z"/>
    <path class="fil0 str0" d="M98.08 65.41c2.36,4.42 5.07,4.78 7.53,0l18.25 -34.91c2.44,-4.67 2.44,-9.35 0,-14.03 -10.74,-21.31 -33.29,-21.31 -44.03,0 -2.44,4.68 -2.44,9.36 0,14.03l18.25 34.91z"/>
   </g>
   <g>
    <path class="fil1" d="M185.8 62.23l-25.78 49.53c-3.78,7.26 -11.38,12.21 -20.13,12.21 -12.54,0 -22.7,-10.16 -22.7,-22.69 0,-3.79 0.92,-7.35 2.56,-10.49l14.86 -28.56 51.19 0z"/>
    <path class="fil1" d="M17.89 62.23l25.78 49.53c3.78,7.26 11.38,12.21 20.13,12.21 12.54,0 22.7,-10.16 22.7,-22.69 0,-3.79 -0.92,-7.35 -2.56,-10.49l-14.86 -28.56 -51.19 0z"/>
    <path class="fil1" d="M98.08 65.41c2.36,4.42 5.07,4.78 7.53,0l1.67 -3.18 -10.87 0 1.67 3.18z"/>
   </g>
   <g>
    <path class="fil2" d="M180.5 0.53c12.54,0 22.7,10.16 22.7,22.69 0,3.78 -0.92,7.35 -2.56,10.48l-14.84 28.53 -51.19 0 25.76 -49.49c3.78,-7.26 11.38,-12.21 20.13,-12.21z"/>
    <path class="fil2" d="M23.18 0.53c-12.53,0 -22.69,10.16 -22.69,22.69 0,3.78 0.92,7.35 2.56,10.48l14.84 28.53 51.19 0 -25.76 -49.49c-3.78,-7.26 -11.38,-12.21 -20.14,-12.21z"/>
    <path class="fil2" d="M107.28 62.23l16.58 -31.73c2.44,-4.67 2.44,-9.35 0,-14.03 -10.74,-21.31 -33.29,-21.31 -44.03,0 -2.44,4.68 -2.44,9.36 0,14.03l16.58 31.73 10.87 0z"/>
   </g>
  </g>
 </g>
</svg>
