<?xml version="1.0" encoding="UTF-8"?>
<!DOCTYPE svg PUBLIC "-//W3C//DTD SVG 1.1//EN" "http://www.w3.org/Graphics/SVG/1.1/DTD/svg11.dtd">
<!-- Creator: CorelDRAW -->
<svg xmlns="http://www.w3.org/2000/svg" xml:space="preserve" width="3096px" height="3096px" version="1.1" style="shape-rendering:geometricPrecision; text-rendering:geometricPrecision; image-rendering:optimizeQuality; fill-rule:evenodd; clip-rule:evenodd"
viewBox="0 0 275.94 275.94"
 xmlns:xlink="http://www.w3.org/1999/xlink"
 xmlns:xodm="http://www.corel.com/coreldraw/odm/2003">
 <defs>
  <style type="text/css">
   <![CDATA[
    .fil2 {fill:none}
    .fil1 {fill:#005BBB}
    .fil0 {fill:#FFD500}
   ]]>
  </style>
 </defs>
 <g id="Слой_x0020_1">
  <metadata id="CorelCorpID_0Corel-Layer"/>
  <g id="_2411827770096">
   <path class="fil0" d="M137.67 102.5l0.08 0c0.08,0 0.17,0 0.25,0.01l0.05 0c0.1,0 0.2,0.01 0.3,0.02l0.07 0c0.08,0.01 0.16,0.02 0.24,0.02l0.07 0.01c0.1,0.01 0.19,0.02 0.29,0.03l0.05 0.01c0.08,0.01 0.16,0.02 0.24,0.04l0.08 0.01c0.1,0.01 0.19,0.03 0.29,0.04l0.02 0.01c0.09,0.02 0.18,0.03 0.26,0.05l0.08 0.02c0.08,0.01 0.16,0.03 0.24,0.05l0.05 0.01c0.09,0.02 0.18,0.04 0.27,0.07l0.08 0.02c0.07,0.01 0.14,0.03 0.21,0.05l0.08 0.02c0.09,0.03 0.17,0.06 0.26,0.08l0.08 0.03c0.06,0.02 0.13,0.04 0.19,0.06l0.09 0.03c0.08,0.03 0.16,0.06 0.24,0.09l0.08 0.02c0.07,0.03 0.13,0.05 0.2,0.08l0.09 0.04c0.07,0.02 0.13,0.05 0.19,0.07 0.03,0.01 0.05,0.02 0.08,0.03 0.08,0.04 0.15,0.07 0.23,0.11l0.1 0.04c0.06,0.03 0.11,0.05 0.16,0.08 0.03,0.01 0.07,0.03 0.1,0.04 0.08,0.04 0.15,0.08 0.22,0.11 0.04,0.02 0.07,0.04 0.1,0.06 0.05,0.02 0.1,0.05 0.15,0.07l0.1 0.06c0.06,0.03 0.12,0.07 0.18,0.1 0.04,0.02 0.09,0.05 0.14,0.08 0.04,0.02 0.09,0.05 0.13,0.08 0.04,0.02 0.08,0.04 0.12,0.07 0.04,0.02 0.08,0.05 0.12,0.07 0.06,0.04 0.12,0.08 0.18,0.12 0.04,0.02 0.08,0.05 0.12,0.08 0.04,0.03 0.08,0.05 0.12,0.08 0.03,0.02 0.07,0.05 0.11,0.07 0.03,0.03 0.07,0.06 0.11,0.08 0.06,0.05 0.12,0.09 0.18,0.14 0.04,0.03 0.08,0.06 0.12,0.09 0.03,0.02 0.06,0.04 0.09,0.07 0.04,0.03 0.09,0.06 0.13,0.09 0.02,0.02 0.05,0.04 0.07,0.06 0.08,0.06 0.15,0.13 0.22,0.19 0.03,0.02 0.05,0.04 0.08,0.06 0.04,0.04 0.08,0.07 0.12,0.11l0.07 0.06c0.08,0.07 0.16,0.14 0.24,0.22l0.04 0.03c0.04,0.05 0.09,0.09 0.13,0.13l0.05 0.05c0.14,0.13 0.28,0.27 0.41,0.42l0.04 0.04c0.13,0.14 0.26,0.29 0.39,0.45l0.04 0.03c0.04,0.05 0.08,0.1 0.12,0.15l0.02 0.03c0.08,0.1 0.17,0.21 0.25,0.32l0.01 0c0.04,0.06 0.08,0.11 0.12,0.17l0.02 0.02c0.12,0.17 0.24,0.34 0.35,0.52l0.02 0.02c0.11,0.18 0.22,0.35 0.33,0.53l0.02 0.03c0.03,0.06 0.06,0.12 0.1,0.18l0 0c0.09,0.17 0.18,0.33 0.27,0.5l23.3 44.77c0.94,1.8 1.47,3.85 1.47,6.03 0,7.21 -5.84,13.05 -13.05,13.05 -5.04,0 -9.41,-2.85 -11.58,-7.03l-2.6 -4.99c-0.44,-0.84 -0.31,-1.83 0.33,-2.53 1.17,-1.28 2.24,-2.82 3.15,-4.64 1.09,-2.1 1.33,-4.19 0.72,-6.28 -0.11,-0.39 -0.45,-0.65 -0.85,-0.65l-25.06 0c-0.4,0 -0.74,0.26 -0.85,0.65 -0.61,2.09 -0.37,4.19 0.72,6.28 0.91,1.82 1.98,3.36 3.15,4.64 0.64,0.7 0.77,1.69 0.33,2.53l-2.6 4.99c-2.18,4.18 -6.54,7.03 -11.58,7.03 -7.21,0 -13.05,-5.84 -13.05,-13.05 0,-2.18 0.53,-4.23 1.47,-6.03l23.3 -44.77c0.09,-0.17 0.18,-0.33 0.27,-0.5l0 0c0.03,-0.06 0.07,-0.12 0.1,-0.18l0.02 -0.03c0.11,-0.18 0.22,-0.35 0.33,-0.53l0.02 -0.02c0.11,-0.18 0.23,-0.35 0.35,-0.52l0.02 -0.02c0.04,-0.06 0.08,-0.11 0.12,-0.17l0.01 0c0.08,-0.11 0.16,-0.22 0.25,-0.32l0.02 -0.03c0.04,-0.05 0.08,-0.1 0.12,-0.15l0.04 -0.03c0.12,-0.16 0.26,-0.31 0.39,-0.45l0.04 -0.04c0.13,-0.15 0.27,-0.29 0.41,-0.42l0.05 -0.05c0.04,-0.04 0.09,-0.08 0.13,-0.13l0.04 -0.03c0.08,-0.08 0.16,-0.15 0.24,-0.22l0.07 -0.06c0.04,-0.04 0.08,-0.07 0.12,-0.11 0.03,-0.02 0.05,-0.04 0.08,-0.06 0.07,-0.06 0.14,-0.13 0.22,-0.19 0.02,-0.02 0.05,-0.04 0.07,-0.06 0.04,-0.03 0.09,-0.06 0.13,-0.09l0.09 -0.07c0.04,-0.03 0.08,-0.06 0.12,-0.09 0.06,-0.05 0.12,-0.09 0.18,-0.14 0.04,-0.02 0.08,-0.05 0.11,-0.08 0.04,-0.02 0.08,-0.05 0.11,-0.07 0.04,-0.03 0.08,-0.05 0.12,-0.08 0.04,-0.03 0.08,-0.06 0.12,-0.08 0.06,-0.04 0.12,-0.08 0.18,-0.12 0.04,-0.02 0.08,-0.05 0.12,-0.07 0.04,-0.03 0.08,-0.05 0.12,-0.07 0.04,-0.03 0.09,-0.06 0.13,-0.08 0.05,-0.03 0.1,-0.06 0.14,-0.08 0.06,-0.03 0.12,-0.07 0.17,-0.1 0.04,-0.02 0.08,-0.04 0.11,-0.06 0.05,-0.02 0.1,-0.05 0.15,-0.07 0.03,-0.02 0.06,-0.04 0.1,-0.06 0.07,-0.03 0.14,-0.07 0.22,-0.11 0.03,-0.01 0.07,-0.03 0.1,-0.04 0.05,-0.03 0.1,-0.05 0.16,-0.08 0.03,-0.01 0.06,-0.03 0.1,-0.04 0.08,-0.04 0.15,-0.07 0.23,-0.11 0.03,-0.01 0.05,-0.02 0.08,-0.03 0.06,-0.02 0.12,-0.05 0.19,-0.07l0.09 -0.04c0.07,-0.03 0.13,-0.05 0.2,-0.08l0.08 -0.02c0.08,-0.03 0.16,-0.06 0.24,-0.09l0.08 -0.03c0.07,-0.02 0.14,-0.04 0.2,-0.06l0.08 -0.03c0.09,-0.02 0.17,-0.05 0.26,-0.08l0.08 -0.02c0.07,-0.02 0.14,-0.04 0.2,-0.05l0.09 -0.02c0.09,-0.03 0.18,-0.05 0.27,-0.07l0.05 -0.01c0.08,-0.02 0.16,-0.04 0.24,-0.05l0.08 -0.02c0.08,-0.02 0.17,-0.03 0.26,-0.05l0.02 -0.01c0.1,-0.01 0.19,-0.03 0.29,-0.04l0.08 -0.01c0.08,-0.02 0.16,-0.03 0.24,-0.04l0.05 -0.01c0.1,-0.01 0.19,-0.02 0.29,-0.03l0.07 -0.01c0.08,0 0.16,-0.01 0.24,-0.02l0.07 0c0.1,-0.01 0.2,-0.02 0.3,-0.02l0.05 0c0.08,-0.01 0.16,-0.01 0.25,-0.01l0.08 0c0.1,-0.01 0.2,-0.01 0.3,-0.01 0.1,0 0.2,0 0.3,0.01zm6.69 32.87l-4.82 -9.22c-1.42,-2.75 -2.98,-2.54 -4.34,0l-4.82 9.22c-0.15,0.28 -0.14,0.6 0.03,0.87 0.17,0.28 0.44,0.43 0.76,0.43l12.4 0c0.32,0 0.59,-0.15 0.76,-0.43 0.17,-0.27 0.18,-0.59 0.03,-0.87z"/>
   <path class="fil0" d="M61.03 137.97l23.62 45.38c3.47,6.66 10.43,11.2 18.45,11.2 9.87,0 18.14,-6.88 20.27,-16.1 0.08,-0.34 -0.04,-0.68 -0.31,-0.9 -0.28,-0.21 -0.63,-0.26 -0.94,-0.11 -2.49,1.19 -5.25,1.83 -8.11,1.83 -10.4,0 -18.84,-8.44 -18.84,-18.84 0,-3.04 0.72,-6.01 2.12,-8.7l7.16 -13.76 -43.42 0z"/>
   <path class="fil0" d="M214.89 137.97l-23.61 45.38c-3.47,6.66 -10.44,11.2 -18.46,11.2 -9.65,0 -17.77,-6.58 -20.12,-15.5 -0.08,-0.33 0.02,-0.66 0.27,-0.89 0.26,-0.23 0.6,-0.29 0.92,-0.17 2.14,0.84 4.46,1.28 6.84,1.28 10.4,0 18.84,-8.44 18.84,-18.84 0,-3.04 -0.72,-6.01 -2.12,-8.7l-7.16 -13.76 44.6 0z"/>
   <path class="fil1" d="M210.04 81.42c15.73,0 25.59,16.72 18.46,30.41l-13.61 26.14 -44.6 0 -16.14 -31.02c-6.77,-13.01 -24.72,-13.66 -32.54,-1.74 -0.62,0.94 -1.27,2.18 -1.86,3.33 -0.17,0.33 -0.5,0.52 -0.87,0.49 -0.37,-0.03 -0.66,-0.27 -0.78,-0.62 -4.11,-13.04 5.53,-27.02 19.86,-27.02 8.02,0 14.99,4.54 18.46,11.19l16.8 32.3c0.16,0.3 0.45,0.48 0.79,0.48 0.34,0 0.64,-0.18 0.79,-0.48l16.79 -32.26c3.47,-6.65 10.43,-11.2 18.45,-11.2z"/>
   <path class="fil1" d="M65.88 81.42c-11.49,0 -20.8,9.32 -20.8,20.8 0,3.47 0.85,6.73 2.35,9.61l13.6 26.14 43.42 0 0.67 -1.29c0.69,-1.33 0.69,-2.78 0,-4.11l-20.79 -39.95c-3.47,-6.65 -10.43,-11.2 -18.45,-11.2z"/>
  </g>
  <rect class="fil2" width="275.94" height="275.94"/>
 </g>
</svg>
