<?xml version="1.0" encoding="UTF-8"?>
<!DOCTYPE svg PUBLIC "-//W3C//DTD SVG 1.1//EN" "http://www.w3.org/Graphics/SVG/1.1/DTD/svg11.dtd">
<!-- Creator: CorelDRAW -->
<svg xmlns="http://www.w3.org/2000/svg" xml:space="preserve" width="2084px" height="1270px" version="1.1" style="shape-rendering:geometricPrecision; text-rendering:geometricPrecision; image-rendering:optimizeQuality; fill-rule:evenodd; clip-rule:evenodd"
viewBox="0 0 201.84 122.95"
 xmlns:xlink="http://www.w3.org/1999/xlink"
 xmlns:xodm="http://www.corel.com/coreldraw/odm/2003">
 <defs>
  <style type="text/css">
   <![CDATA[
    .fil0 {fill:none}
    .fil2 {fill:#005BBB}
    .fil1 {fill:#FFD500}
   ]]>
  </style>
 </defs>
 <g id="Слой_x0020_1">
  <metadata id="CorelCorpID_0Corel-Layer"/>
  <g id="_2499713886320">
   <g>
    <path class="fil0" d="M179.24 0.04c12.48,0 22.6,10.12 22.6,22.6 0,3.76 -0.92,7.31 -2.55,10.43l-40.44 77.72c-3.77,7.23 -11.33,12.16 -20.05,12.16 -12.48,0 -22.6,-10.11 -22.6,-22.6 0,-3.76 0.92,-7.31 2.55,-10.43l40.44 -77.72c3.77,-7.22 11.33,-12.16 20.05,-12.16z"/>
    <path class="fil0" d="M22.6 0.04c-12.48,0 -22.6,10.12 -22.6,22.6 0,3.76 0.92,7.31 2.55,10.43l40.44 77.72c3.77,7.23 11.34,12.16 20.05,12.16 12.49,0 22.6,-10.11 22.6,-22.6 0,-3.76 -0.92,-7.31 -2.54,-10.43l-40.45 -77.72c-3.77,-7.22 -11.33,-12.16 -20.05,-12.16z"/>
    <path class="fil0" d="M97.17 64.65c2.36,4.4 5.05,4.75 7.5,0l18.17 -34.77c2.43,-4.65 2.43,-9.31 0,-13.96 -10.69,-21.23 -33.14,-21.23 -43.84,0 -2.42,4.65 -2.42,9.31 0,13.96l18.17 34.77z"/>
   </g>
   <g>
    <path class="fil1" d="M184.51 61.48l-25.66 49.31c-3.77,7.23 -11.33,12.16 -20.05,12.16 -12.48,0 -22.6,-10.11 -22.6,-22.6 0,-3.76 0.92,-7.31 2.55,-10.43l14.8 -28.44 50.96 0z"/>
    <path class="fil1" d="M17.33 61.48l25.66 49.31c3.77,7.23 11.34,12.16 20.05,12.16 12.49,0 22.6,-10.11 22.6,-22.6 0,-3.76 -0.92,-7.31 -2.54,-10.43l-14.81 -28.44 -50.96 0z"/>
    <path class="fil1" d="M97.17 64.65c2.36,4.4 5.05,4.75 7.5,0l1.66 -3.17 -10.82 0 1.66 3.17z"/>
   </g>
   <g>
    <path class="fil2" d="M179.24 0.04c12.48,0 22.6,10.12 22.6,22.6 0,3.76 -0.92,7.31 -2.55,10.43l-14.78 28.41 -50.96 0 25.64 -49.28c3.77,-7.22 11.33,-12.16 20.05,-12.16z"/>
    <path class="fil2" d="M22.6 0.04c-12.48,0 -22.6,10.12 -22.6,22.6 0,3.76 0.92,7.31 2.55,10.43l14.78 28.41 50.96 0 -25.64 -49.28c-3.77,-7.22 -11.33,-12.16 -20.05,-12.16z"/>
    <path class="fil2" d="M106.33 61.48l16.51 -31.6c2.43,-4.65 2.43,-9.31 0,-13.96 -10.69,-21.23 -33.14,-21.23 -43.84,0 -2.42,4.65 -2.42,9.31 0,13.96l16.51 31.6 10.82 0z"/>
   </g>
  </g>
 </g>
</svg>
